<svg id="Layer_1" data-name="Layer 1" xmlns="http://www.w3.org/2000/svg" viewBox="0 0 280 300"><defs><style>.cls-1{fill:#0091d0;fill-rule:evenodd;}</style></defs><title>Milma Logo</title><path class="cls-1" d="M140,106.11a23.75,23.75,0,1,1-23.91,23.74A23.82,23.82,0,0,1,140,106.11Zm-.32,21c-4.77.07-10.67-5.05-15-10,13.2,8.66,16.8,8.66,30,0-4.33,5-10.23,10.11-15,10Zm-3.07,15.33a18.35,18.35,0,0,0,0-5.73c-.3-4-2.86-9.45-7.29-13.6,7.37,4,10.45,7.63,10.31,13.13a13.13,13.13,0,0,1-1.66,6.55c-1.88,3.74,6.37,3.74,4.49,0a13.34,13.34,0,0,1-1.66-6.55c-.13-5.5,2.48-9.7,10-13.48a21.93,21.93,0,0,0-6.95,14,17.19,17.19,0,0,0,0,5.73c2.69,6.87-9.91,6.87-7.23,0ZM209.68,185c0-1,0-1.57-.38-1.89a3,3,0,0,0-1.75-.23c-1.15.19-1.87,1-1.8,2.76.05,1.17.19,2.42,2,2.54,2.37.15,1.92-1.8,2-3.18Zm11.5-6.89c0,1.64-.18,3.72-.15,5.49.05,2.86.78,3.53,2,3.64s1,.79,1,1.46c-.31,3.52-8.08,6.6-10.29,4.62-2.33-3.27-3.73-1.92-7.74,0-2,1.05-5.33.24-7.38-.83a6,6,0,0,1-3.86-5.7c0-4,2.77-5.91,6.31-6.91,3.26-1.18,8.62-.11,8.62-.28,0-1.67,0-2.17-.09-3.93-.26-2.09-1.76-2.21-2.88-2-1.92.66-2.45,2.2-4,3.35-1.62,1.76-5.94,1.05-6.1-1.38.09-3.35,3.76-4.65,6.94-5.67a24.2,24.2,0,0,1,10-.09c4.62.87,7.66,3.65,7.57,8.19Zm-76.88,12.1c-.51,2.46-2.67,2.61-4.81,2.93a34,34,0,0,1-4.94.27c-1.89,0-4.74.11-6.7-.56-1.32-.46-2.45-1.23-2.52-2.73,0-1.08,1.45-1.68,2.33-2.07a2.15,2.15,0,0,0,1.16-2.09c.14-1.3,0-2.1.06-3.23.13-3.46,0-7.23.08-10.74-.27-4.24-4.58-2.49-4.31-5.43.1-1.55,2-2.46,3.27-3a23.1,23.1,0,0,1,5.66-1.63,31,31,0,0,1,4.9-.51c1.62,0,2.49.51,2.49,2,0,7.22.12,13.76.12,21.26a7.2,7.2,0,0,0,.24,2.17c.82,2,3,1.21,3,3.42Zm-36.39-13.89a8.4,8.4,0,0,0-.93-.51,4.74,4.74,0,0,1-1.19-.84c-1.26-1.27.85-2.3,1.75-2.77a25.8,25.8,0,0,1,5.55-1.74,44.44,44.44,0,0,1,5.58-1.12h0c2,0,2,1.56,2,3V184.3a4.23,4.23,0,0,0,.75,2.87c.53.87,2.06,1.5,2.25,2.69.08,3.25-6.2,3.4-8.62,3.4a25.72,25.72,0,0,1-7.07-.66c-1.25-.38-2.47-1.27-2.47-2.62,0-1.07,1.25-1.84,1.82-2.24a2.53,2.53,0,0,0,1-1.65,15,15,0,0,0,.22-3.48l-.11-3.19a14,14,0,0,0-.2-2.42,1.5,1.5,0,0,0-.42-.73Zm12.74-12.51c0,2.2-1.11,3-2.59,3.71a16.45,16.45,0,0,1-7.2,1.28c-2.22,0-4.92-.94-5-3.32,0-1.66,1.64-3,3-3.54a13.45,13.45,0,0,1,5.83-1c2.18,0,5.57.2,5.89,2.85ZM86.76,190.23c0,3.11-5.54,3.08-7.67,3.08-2.45,0-4.28.32-6.2-1.16a2.09,2.09,0,0,1-.64-2c.33-2.1,1.77-1.53,1.73-3.71.06-1.46,0-4.57,0-5.9,0-1.6-.18-3.76-2.14-3.64-1.91-.05-1.77,1.81-1.85,2.78-.1,1.22-.12,3.09-.12,4.31a11.25,11.25,0,0,0,.27,3.76c.12.74.9,1.54.84,2.48,0,3-6.06,3-8.12,3-1.87,0-6.85-.53-7-2.8-.05-1.27.34-1.29,1.14-1.87a2.75,2.75,0,0,0,1.43-2.49c0-.87.09-8.81-.07-9.11-.51-2-2.28-.78-2.33-2.92,0-1.34,1.63-2,2.7-2.43,1.45-.54,3-1,4.53-1.38a21.07,21.07,0,0,1,4.73-.79c1.33,0,1.62,1.18,1.62,2.22a5.48,5.48,0,0,0,.14.87c.29,1.3.48,1.52,1.49.57a10.41,10.41,0,0,1,3.21-2.77,9.27,9.27,0,0,1,4.19-.89c2.41,0,4.76.84,5.84,3a1.26,1.26,0,0,0,1.15.78c.76-.27,2.67-2.4,4.87-3.26a8.32,8.32,0,0,1,3-.56,8.08,8.08,0,0,1,5.58,1.85,6.75,6.75,0,0,1,2,5.19l-.2,8.85a4.64,4.64,0,0,0,.93,3.05,2.86,2.86,0,0,1,1,1.6c0,3.23-5.3,3.32-7.6,3.32a18.54,18.54,0,0,1-3.8-.35c-1.24-.28-3.54-1-3.54-2.65,0-2,1.55-1.77,1.49-4a37,37,0,0,0,.16-4.21c0-1.23.13-5.45-2.19-5.37-2.09-.11-2.26,2.67-2.26,4v3.89a17.13,17.13,0,0,0,.24,2.38c.21,1.33,1.48,1.65,1.33,3.16Zm89.69,0c0,3.11-5.54,3.08-7.67,3.08-2.45,0-4.28.32-6.2-1.16a2.09,2.09,0,0,1-.64-2c.33-2.1,1.77-1.53,1.73-3.71.06-1.46,0-4.57,0-5.9.05-1.6-.18-3.76-2.14-3.64-1.91-.05-1.77,1.81-1.85,2.78-.1,1.22-.12,3.09-.12,4.31a11.25,11.25,0,0,0,.27,3.76c.12.74.91,1.54.84,2.48-.05,3-6.06,3-8.12,3-1.87,0-6.85-.53-6.95-2.8-.06-1.27.33-1.29,1.13-1.87a2.75,2.75,0,0,0,1.43-2.49c0-.87.09-8.81-.07-9.11-.51-2-2.28-.78-2.33-2.92,0-1.34,1.63-2,2.71-2.43,1.44-.54,3-1,4.52-1.38a21.07,21.07,0,0,1,4.73-.79c1.33,0,1.62,1.18,1.62,2.22a5.48,5.48,0,0,0,.14.87c.29,1.3.48,1.52,1.49.57a10.41,10.41,0,0,1,3.21-2.77,9.27,9.27,0,0,1,4.19-.89c2.41,0,4.77.84,5.84,3a1.26,1.26,0,0,0,1.15.78c.77-.27,2.67-2.4,4.87-3.26a8.32,8.32,0,0,1,3-.56,8.08,8.08,0,0,1,5.58,1.85,6.75,6.75,0,0,1,2,5.19l-.2,8.85a4.64,4.64,0,0,0,.93,3.05,2.86,2.86,0,0,1,1,1.6c0,3.23-5.3,3.32-7.6,3.32a18.6,18.6,0,0,1-3.8-.35c-1.23-.28-3.54-1-3.54-2.65,0-2,1.55-1.77,1.49-4a37,37,0,0,0,.16-4.21c0-1.23.13-5.45-2.19-5.37-2.09-.11-2.25,2.67-2.25,4v3.89a15.73,15.73,0,0,0,.23,2.38c.21,1.33,1.48,1.65,1.33,3.16Z"/></svg>